<svg preserveAspectRatio="xMidYMid meet" overflow="visible" style="display: block;" viewBox="208 -5 1432 240" fill="none" xmlns="http://www.w3.org/2000/svg">
  <!-- Geometric Icon -->
  <svg x="211.81" y="-3.13" width="232.06" height="230.28" viewBox="0 0 232.096 230.282" overflow="visible">
    <path d="M142.894 88.3046H53.6982V176.591H142.894V88.3046Z" fill="var(--fill-0, white)"/>
    <path d="M232.095 7.87603e-05H142.899V88.2861H232.095V7.87603e-05Z" fill="var(--fill-0, white)"/>
    <path d="M53.6997 176.582H0V230.282H53.6997V176.582Z" fill="var(--fill-0, white)"/>
    <path d="M196.599 176.582H142.899V230.282H196.599V176.582Z" fill="var(--fill-0, white)"/>
    <path d="M53.6986 51.884H17.292V88.2906H53.6986V51.884Z" fill="var(--fill-0, white)"/>
  </svg>
  <!-- b -->
  <svg x="501" y="0.35" width="169.45" height="225.77" viewBox="0 0 172.894 229.224" overflow="visible">
    <path d="M1.73506 223.292L1.82208 1.73438H32.0329V80.4801H32.6162C45.6862 62.2195 66.0172 52.9351 87.8005 52.9351C133.402 52.9351 171.16 92.4562 171.16 140.361C171.16 188.265 135.724 227.489 90.4073 227.489C67.1719 227.489 45.6743 217.909 32.3186 199.34H31.7354V223.292H1.82208H1.73506ZM140.949 140.361C140.949 108.926 116.845 81.3694 85.765 81.3694C54.6851 81.3694 31.1521 108.322 31.1521 139.756C31.1521 171.19 55.2565 199.043 86.0507 199.043C116.845 199.043 140.949 172.696 140.949 140.349V140.361Z" fill="var(--fill-0, white)" stroke="var(--stroke-0, white)" stroke-width="3.46877" stroke-miterlimit="10"/>
  </svg>
  <!-- e -->
  <svg x="687.77" y="52.44" width="164.43" height="174.57" viewBox="0 0 167.867 178.023" overflow="visible">
    <path d="M31.9333 102.642C38.9087 130.187 60.1087 147.855 84.7964 147.855C103.675 147.855 121.399 137.669 130.696 120.001H160.907C148.42 154.127 118.209 176.289 83.6418 176.289C38.3255 176.289 1.73438 134.965 1.73438 90.6539C1.73438 38.2555 40.0753 1.73438 82.7728 1.73438C130.113 1.73438 166.132 39.465 166.132 87.0729C166.132 92.1598 166.132 96.9502 165.263 102.642H31.9333ZM135.922 78.6896C133.6 50.5399 109.484 30.1806 83.6418 30.1806C57.7995 30.1806 34.2664 50.2435 31.9333 78.6896H135.922Z" fill="var(--fill-0, white)" stroke="var(--stroke-0, white)" stroke-width="3.46877" stroke-miterlimit="10"/>
  </svg>
  <!-- a -->
  <svg x="869.36" y="52" width="170.75" height="174.57" viewBox="0 0 174.271 178.035" overflow="visible">
    <path d="M142.167 172.091L142.326 146.36H141.742C130.41 166.115 110.079 176.301 87.1295 176.301C40.0753 176.301 1.73438 139.768 1.73438 91.8633C1.73438 38.8602 38.6231 1.73438 85.9749 1.73438C109.496 1.73438 129.256 10.7105 141.742 29.5758H142.326V6.21652H172.536V172.091H142.326H142.167ZM142.909 89.4681C142.909 57.1327 120.257 30.1806 86.8438 30.1806C56.6329 30.1806 31.9453 56.8244 31.9453 89.4681C31.9453 122.112 56.6329 147.854 86.8438 147.854C117.055 147.854 142.909 120.902 142.909 89.4681Z" fill="var(--fill-0, white)" stroke="var(--stroke-0, white)" stroke-width="3.46877" stroke-miterlimit="10"/>
  </svg>
  <!-- u -->
  <svg x="1064.11" y="56.05" width="142.51" height="170.06" viewBox="0 0 146.084 173.541" overflow="visible">
    <path d="M116.757 167.609V149.645H116.174C108.329 163.72 90.0339 171.807 68.8339 171.807C34.2664 171.807 1.73438 152.645 1.73438 94.2585V1.73438H31.9452V91.8633C31.9452 126.594 44.4319 143.36 72.024 143.36C99.6162 143.36 114.138 123.298 114.138 91.2586V1.73438H144.349V167.609H116.757Z" fill="var(--fill-0, white)" stroke="var(--stroke-0, white)" stroke-width="3.46877" stroke-miterlimit="10"/>
  </svg>
  <!-- OS -->
  <svg x="1266.04" y="6.69" width="369.93" height="220.94" viewBox="0 0 373.415 224.409" overflow="visible">
    <path d="M111.174 222.675C51.9787 222.675 1.73438 172.043 1.73438 114.511C1.73438 49.2113 51.9787 1.74568 112.043 1.74568C175.572 1.74568 224.09 51.5117 224.09 110.764C224.09 175.197 174.132 222.663 111.186 222.663L111.174 222.675ZM192.891 112.791C192.891 68.7762 159.395 30.2274 114.353 30.2274C56.5973 30.2274 32.9213 79.7088 32.9213 111.345C32.9213 154.21 64.1083 194.193 112.912 194.193C161.716 194.193 192.903 151.625 192.903 112.791H192.891Z" fill="var(--fill-0, white)" stroke="var(--stroke-0, white)" stroke-width="3.46877" stroke-miterlimit="10"/>
    <path d="M335.715 60.9864C335.715 41.7179 323.745 30.228 306.128 30.228C291.106 30.228 277.536 43.7455 277.536 59.2789C277.536 74.8122 287.642 82.8635 308.437 89.48C354.635 104.148 371.68 121.412 371.68 158.23C371.68 195.047 343.957 222.664 306.128 222.664C268.299 222.664 240.862 195.617 240.29 155.633H271.477C271.763 178.637 285.333 194.17 306.128 194.17C326.923 194.17 340.493 179.218 340.493 158.218C340.493 142.685 333.565 132.902 310.747 125.136C257.907 107.302 246.349 90.0373 246.349 59.8362C246.349 27.3348 273.203 1.73438 306.128 1.73438C341.362 1.73438 366.776 23.8842 367.347 60.9864H336.161H335.715Z" fill="var(--fill-0, white)" stroke="var(--stroke-0, white)" stroke-width="3.46877" stroke-miterlimit="10"/>
  </svg>
</svg>
